<svg width="63" height="30" viewBox="0 0 63 30" fill="none" xmlns="http://www.w3.org/2000/svg">
    <path
        d="M12.0643 22.4712C10.2956 26.7347 11.0962 28.1868 6.9631 27.9262C4.14577 27.9262 1.86188 25.4839 1.86188 22.4712C1.86188 19.4586 4.14577 17.0163 6.9631 17.0163C9.78042 17.0163 12.0643 19.4586 12.0643 22.4712Z"
        fill="#1C104F" />
    <ellipse cx="8.41554" cy="23.3269" rx="3.83522" ry="4.59854" fill="#2D1A83" />
    <path
        d="M39.9903 22.4712C38.2217 26.7347 39.0222 28.1868 34.8891 27.9262C32.0718 27.9262 29.7879 25.4839 29.7879 22.4712C29.7879 19.4586 32.0718 17.0163 34.8891 17.0163C37.7064 17.0163 39.9903 19.4586 39.9903 22.4712Z"
        fill="#1C104F" />
    <ellipse cx="36.3414" cy="23.3269" rx="3.83522" ry="4.59854" fill="#1C104F" />
    <path
        d="M27.0889 -3.05176e-05C19.9583 -3.05176e-05 13.312 8.61977 9.88629 12.0455C26.4559 15.4091 59.4947 19.8612 57.3797 12.4737C55.2647 5.08628 53.2838 -3.05176e-05 43.1186 -3.05176e-05C43.1186 -3.05176e-05 26.7538 0.0639592 27.0889 -3.05176e-05Z"
        fill="#5840FF" />
    <path
        d="M33.4368 24.5192C31.6681 28.7826 32.4686 30.2348 28.3355 29.9741C25.5182 29.9741 23.2343 27.5319 23.2343 24.5192C23.2343 21.5065 25.5182 19.0642 28.3355 19.0642C31.1529 19.0642 33.4368 21.5065 33.4368 24.5192Z"
        fill="#1C104F" />
    <ellipse cx="29.7879" cy="25.3759" rx="3.83522" ry="4.59854" fill="#2D1A83" />
    <path
        d="M59.0549 24.5192C57.2862 28.7826 58.0867 30.2348 53.9536 29.9741C51.1363 29.9741 48.8524 27.5319 48.8524 24.5192C48.8524 21.5065 51.1363 19.0642 53.9536 19.0642C56.771 19.0642 59.0549 21.5065 59.0549 24.5192Z"
        fill="#1C104F" />
    <ellipse cx="55.4055" cy="25.3759" rx="3.83522" ry="4.59854" fill="#2D1A83" />
    <rect x="23.2348" y="11.6541" width="39.2831" height="11.9897" rx="5.99486" fill="#5840FF" />
    <path
        d="M0 17.6492C0 14.3384 2.68399 11.6544 5.99486 11.6544H30.4211C32.0046 11.6544 33.2882 12.938 33.2882 14.5215V20.777C33.2882 22.3604 32.0046 23.6441 30.4211 23.6441H5.99486C2.68399 23.6441 0 20.9601 0 17.6492Z"
        fill="#503BE3" />
    <rect x="2.56958" y="14.0381" width="28.187" height="7.22363" rx="2.7554" fill="#180048" />
    <g filter="url(#filter0_d_7912_15386)">
        <circle cx="6.38572" cy="17.5561" r="2.81126" fill="#180048" />
        <circle cx="6.38572" cy="17.5561" r="2.40167" stroke="#60F0F8" stroke-width="0.819174" />
    </g>
    <g filter="url(#filter1_d_7912_15386)">
        <circle cx="26.0461" cy="17.5561" r="2.81126" fill="#180048" />
        <circle cx="26.0461" cy="17.5561" r="2.40167" stroke="#60F0F8" stroke-width="0.819174" />
    </g>
    <path
        d="M13.2287 11.0054L20.7839 4.17808C22.6729 2.4711 25.1282 1.52606 27.6742 1.52606H39.9743C44.4713 1.52606 48.5505 4.16274 50.3972 8.26312L51.9244 11.654H13.4783C13.1375 11.654 12.9758 11.234 13.2287 11.0054Z"
        fill="#100030" />
    <g filter="url(#filter2_d_7912_15386)">
        <path
            d="M47.7525 13.7492H47.7274L45.4668 14.0306C45.4392 14.034 45.4131 14.0429 45.3906 14.0566C45.3682 14.0704 45.3502 14.0885 45.3383 14.1093L44.1253 16.2302L42.9108 18.3511C42.8977 18.3742 42.8924 18.3998 42.8955 18.4251C42.8987 18.4505 42.91 18.4747 42.9285 18.4951C42.9441 18.5128 42.9645 18.5272 42.9882 18.537C43.0118 18.5469 43.0379 18.552 43.0644 18.5519H43.0903L44.1526 18.4188L44.9726 18.3145L43.193 21.3844C43.1749 21.4153 43.1712 21.4505 43.1824 21.4835C43.1937 21.5165 43.2192 21.5449 43.2541 21.5635C43.289 21.582 43.3308 21.5894 43.3718 21.5841C43.4128 21.5789 43.4501 21.5615 43.4766 21.5351L44.9623 20.074L48.2128 16.8771C48.2346 16.8571 48.249 16.8323 48.2543 16.8057C48.2596 16.7791 48.2554 16.7519 48.2424 16.7271C48.2294 16.7024 48.2081 16.6813 48.1809 16.6664C48.1538 16.6514 48.122 16.6432 48.0894 16.6428H48.0613L46.9643 16.7819L46.1842 16.8814L47.9047 13.9518C47.9146 13.9353 47.9204 13.9174 47.9218 13.899C47.9232 13.8807 47.9202 13.8623 47.913 13.8448C47.9058 13.8274 47.8945 13.8114 47.8798 13.7976C47.8651 13.7838 47.8472 13.7725 47.8272 13.7645C47.8041 13.7553 47.7789 13.7506 47.7533 13.7504L47.7525 13.7492Z"
            fill="#60F0F8" />
    </g>
    <defs>
        <filter id="filter0_d_7912_15386" x="1.72904" y="12.8995" width="9.31334" height="9.31334"
            filterUnits="userSpaceOnUse" color-interpolation-filters="sRGB">
            <feFlood flood-opacity="0" result="BackgroundImageFix" />
            <feColorMatrix in="SourceAlpha" type="matrix" values="0 0 0 0 0 0 0 0 0 0 0 0 0 0 0 0 0 0 127 0"
                result="hardAlpha" />
            <feOffset />
            <feGaussianBlur stdDeviation="0.922711" />
            <feColorMatrix type="matrix" values="0 0 0 0 1 0 0 0 0 1 0 0 0 0 1 0 0 0 0.25 0" />
            <feBlend mode="normal" in2="BackgroundImageFix" result="effect1_dropShadow_7912_15386" />
            <feBlend mode="normal" in="SourceGraphic" in2="effect1_dropShadow_7912_15386" result="shape" />
        </filter>
        <filter id="filter1_d_7912_15386" x="21.3894" y="12.8995" width="9.31334" height="9.31334"
            filterUnits="userSpaceOnUse" color-interpolation-filters="sRGB">
            <feFlood flood-opacity="0" result="BackgroundImageFix" />
            <feColorMatrix in="SourceAlpha" type="matrix" values="0 0 0 0 0 0 0 0 0 0 0 0 0 0 0 0 0 0 127 0"
                result="hardAlpha" />
            <feOffset />
            <feGaussianBlur stdDeviation="0.922711" />
            <feColorMatrix type="matrix" values="0 0 0 0 1 0 0 0 0 1 0 0 0 0 1 0 0 0 0.25 0" />
            <feBlend mode="normal" in2="BackgroundImageFix" result="effect1_dropShadow_7912_15386" />
            <feBlend mode="normal" in="SourceGraphic" in2="effect1_dropShadow_7912_15386" result="shape" />
        </filter>
        <filter id="filter2_d_7912_15386" x="40.0075" y="11.2745" width="11.1362" height="13.6109"
            filterUnits="userSpaceOnUse" color-interpolation-filters="sRGB">
            <feFlood flood-opacity="0" result="BackgroundImageFix" />
            <feColorMatrix in="SourceAlpha" type="matrix" values="0 0 0 0 0 0 0 0 0 0 0 0 0 0 0 0 0 0 127 0"
                result="hardAlpha" />
            <feOffset dy="0.412451" />
            <feGaussianBlur stdDeviation="1.44358" />
            <feColorMatrix type="matrix" values="0 0 0 0 0.376471 0 0 0 0 0.941176 0 0 0 0 0.972549 0 0 0 0.58 0" />
            <feBlend mode="normal" in2="BackgroundImageFix" result="effect1_dropShadow_7912_15386" />
            <feBlend mode="normal" in="SourceGraphic" in2="effect1_dropShadow_7912_15386" result="shape" />
        </filter>
    </defs>
</svg>