<svg width="24" height="24" viewBox="0 0 24 24" fill="none" xmlns="http://www.w3.org/2000/svg">
    <g clip-path="url(#clip0_2722_2976)">
        <path
            d="M6.83115 0.638866C6.92691 0.582862 7.01206 0.535477 7.07735 0.5H18.1807C18.1898 0.506315 18.1994 0.512873 18.2092 0.519667C18.3259 0.600344 18.4865 0.713332 18.6619 0.842527C19.0259 1.11059 19.4078 1.41524 19.6151 1.63963C20.0744 2.13683 20.5287 2.82655 20.8538 3.40048C21.1816 3.97936 21.4327 4.4724 21.6467 5.10843C21.8731 5.78172 22.0656 6.44016 22.1202 7.26224C22.1764 8.10845 22.0927 9.27954 21.8845 10.1268C21.6797 10.9603 21.2941 11.7358 20.9386 12.3614C20.6025 12.9525 20.3658 13.2418 19.9216 13.7405C19.4841 14.2319 18.9093 14.7851 18.327 15.228C17.7286 15.683 17.1186 16.0843 16.4297 16.3941C16.1052 16.54 15.5384 16.7149 15.0181 16.8597C14.7651 16.9301 14.5346 16.9903 14.3672 17.033C14.2837 17.0542 14.2161 17.0711 14.1697 17.0825L14.134 17.0913C14.1306 17.0917 14.127 17.0921 14.1231 17.0925C14.1109 17.0939 14.0962 17.0955 14.0792 17.0974C14.0187 17.1038 13.9283 17.1125 13.8134 17.1212C13.5831 17.1386 13.2563 17.1557 12.8751 17.1539C12.1027 17.1505 11.1505 17.0697 10.3289 16.7863C10.0835 16.7016 9.87792 16.6379 9.68873 16.5793C9.25994 16.4465 8.91549 16.3397 8.38377 16.0744C7.40438 15.5855 6.49125 14.9803 5.78486 14.2251C4.77657 13.1473 3.97004 11.8486 3.47622 10.4763C3.09518 9.41742 2.96445 8.24171 3.00803 7.0784C3.0397 6.23291 3.24212 5.37332 3.55589 4.55455C3.8084 3.89565 4.24437 3.24573 4.66872 2.61567C5.02153 2.09183 5.67819 1.47787 6.1422 1.1011C6.34403 0.937226 6.60638 0.770327 6.83115 0.638866Z"
            stroke="white" stroke-width="1.15937" stroke-linejoin="round" />
        <path
            d="M16.5408 12.1495C16.5408 12.7295 16.0549 13.2255 15.4233 13.2255C14.7917 13.2255 14.3059 12.7295 14.3059 12.1495C14.3059 11.5694 14.7917 11.0734 15.4233 11.0734C16.0549 11.0734 16.5408 11.5694 16.5408 12.1495Z"
            stroke="white" stroke-width="1.15937" />
        <path
            d="M10.9134 12.1495C10.9134 12.7295 10.4275 13.2255 9.79593 13.2255C9.16431 13.2255 8.67847 12.7295 8.67847 12.1495C8.67847 11.5694 9.16431 11.0734 9.79593 11.0734C10.4275 11.0734 10.9134 11.5694 10.9134 12.1495Z"
            stroke="white" stroke-width="1.15937" />
        <path
            d="M8.26592 7.51493C8.26592 8.09494 7.78008 8.59099 7.14846 8.59099C6.51686 8.59099 6.03101 8.09494 6.03101 7.51493C6.03101 6.93491 6.51686 6.43884 7.14846 6.43884C7.78008 6.43884 8.26592 6.93491 8.26592 7.51493Z"
            stroke="white" stroke-width="1.15937" />
        <path
            d="M13.7276 7.51493C13.7276 8.09494 13.2418 8.59099 12.6101 8.59099C11.9786 8.59099 11.4927 8.09494 11.4927 7.51493C11.4927 6.93491 11.9786 6.43884 12.6101 6.43884C13.2418 6.43884 13.7276 6.93491 13.7276 7.51493Z"
            stroke="white" stroke-width="1.15937" />
        <path
            d="M19.1065 7.51493C19.1065 8.09494 18.6206 8.59099 17.989 8.59099C17.3574 8.59099 16.8716 8.09494 16.8716 7.51493C16.8716 6.93491 17.3574 6.43884 17.989 6.43884C18.6206 6.43884 19.1065 6.93491 19.1065 7.51493Z"
            stroke="white" stroke-width="1.15937" />
        <path
            d="M16.0259 3.74987C16.0259 4.14716 15.719 4.4343 15.3828 4.4343C15.0467 4.4343 14.7397 4.14716 14.7397 3.74987C14.7397 3.35257 15.0467 3.06543 15.3828 3.06543C15.719 3.06543 16.0259 3.35257 16.0259 3.74987Z"
            stroke="white" stroke-width="1.15937" />
        <path
            d="M10.6465 3.74987C10.6465 4.14716 10.3396 4.4343 10.0034 4.4343C9.66726 4.4343 9.36035 4.14716 9.36035 3.74987C9.36035 3.35257 9.66726 3.06543 10.0034 3.06543C10.3396 3.06543 10.6465 3.35257 10.6465 3.74987Z"
            stroke="white" stroke-width="1.15937" />
        <path
            d="M6.83115 0.638866C6.92691 0.582862 7.01206 0.535477 7.07735 0.5H18.1807C18.1898 0.506315 18.1994 0.512873 18.2092 0.519667C18.3259 0.600344 18.4865 0.713332 18.6619 0.842527C19.0259 1.11059 19.4078 1.41524 19.6151 1.63963C20.0744 2.13683 20.5287 2.82655 20.8538 3.40048C21.1816 3.97936 21.4327 4.4724 21.6467 5.10843C21.8731 5.78172 22.0656 6.44016 22.1202 7.26224C22.1764 8.10845 22.0927 9.27954 21.8845 10.1268C21.6797 10.9603 21.2941 11.7358 20.9386 12.3614C20.6025 12.9525 20.3658 13.2418 19.9216 13.7405C19.4841 14.2319 18.9093 14.7851 18.327 15.228C17.7286 15.683 17.1186 16.0843 16.4297 16.3941C16.1052 16.54 15.5384 16.7149 15.0181 16.8597C14.7651 16.9301 14.5346 16.9903 14.3672 17.033C14.2837 17.0542 14.2161 17.0711 14.1697 17.0825L14.134 17.0913C14.1306 17.0917 14.127 17.0921 14.1231 17.0925C14.1109 17.0939 14.0962 17.0955 14.0792 17.0974C14.0187 17.1038 13.9283 17.1125 13.8134 17.1212C13.5831 17.1386 13.2563 17.1557 12.8751 17.1539C12.1027 17.1505 11.1505 17.0697 10.3289 16.7863C10.0835 16.7016 9.87792 16.6379 9.68873 16.5793C9.25994 16.4465 8.91549 16.3397 8.38377 16.0744C7.40438 15.5855 6.49125 14.9803 5.78486 14.2251C4.77657 13.1473 3.97004 11.8486 3.47622 10.4763C3.09518 9.41742 2.96445 8.24171 3.00803 7.0784C3.0397 6.23291 3.24212 5.37332 3.55589 4.55455C3.8084 3.89565 4.24437 3.24573 4.66872 2.61567C5.02153 2.09183 5.67819 1.47787 6.1422 1.1011C6.34403 0.937226 6.60638 0.770327 6.83115 0.638866Z"
            stroke="white" stroke-width="1.15937" stroke-linejoin="round" />
        <path
            d="M10.2631 20.7911C10.2631 21.1454 9.97587 21.4327 9.62155 21.4327C9.26722 21.4327 8.97998 21.1454 8.97998 20.7911C8.97998 20.4368 9.26722 20.1495 9.62155 20.1495C9.97587 20.1495 10.2631 20.4368 10.2631 20.7911Z"
            stroke="white" stroke-width="1.15937" />
        <path
            d="M16.2433 20.7911C16.2433 21.1454 15.9561 21.4327 15.6017 21.4327C15.2474 21.4327 14.9602 21.1454 14.9602 20.7911C14.9602 20.4368 15.2474 20.1495 15.6017 20.1495C15.9561 20.1495 16.2433 20.4368 16.2433 20.7911Z"
            stroke="white" stroke-width="1.15937" />
        <path
            d="M8.93352 18.1581H16.2026C17.8446 18.1581 19.1017 19.3935 19.1017 20.8291C19.1017 22.2647 17.8446 23.5 16.2026 23.5H8.93352C7.29156 23.5 6.03442 22.2647 6.03442 20.8291C6.03442 19.3935 7.29156 18.1581 8.93352 18.1581Z"
            stroke="white" stroke-width="1.15937" stroke-linecap="round" stroke-linejoin="round" />
    </g>
    <defs>
        <clipPath id="clip0_2722_2976">
            <rect width="24" height="24" fill="white" />
        </clipPath>
    </defs>
</svg>