<svg width="24" height="24" viewBox="0 0 24 24" fill="none" xmlns="http://www.w3.org/2000/svg">
    <g clip-path="url(#clip0_2722_2955)">
        <path
            d="M19.5821 11.9285C19.5821 13.13 18.6081 14.104 17.4066 14.104C16.2052 14.104 15.2312 13.13 15.2312 11.9285C15.2312 10.727 16.2052 9.75305 17.4066 9.75305C18.6081 9.75305 19.5821 10.727 19.5821 11.9285Z"
            stroke="white" stroke-width="1.5" />
        <path
            d="M8.94996 11.9285C8.94996 13.13 7.97602 14.104 6.77456 14.104C5.5731 14.104 4.59912 13.13 4.59912 11.9285C4.59912 10.727 5.5731 9.75305 6.77456 9.75305C7.97602 9.75305 8.94996 10.727 8.94996 11.9285Z"
            stroke="white" stroke-width="1.5" />
        <path
            d="M13.6471 18.5042C13.6471 19.3598 12.9535 20.0534 12.0979 20.0534C11.2424 20.0534 10.5488 19.3598 10.5488 18.5042C10.5488 17.6487 11.2424 16.9551 12.0979 16.9551C12.9535 16.9551 13.6471 17.6487 13.6471 18.5042Z"
            stroke="white" stroke-width="1.5" />
        <path
            d="M13.6471 5.35237C13.6471 6.20795 12.9535 6.90152 12.0979 6.90152C11.2424 6.90152 10.5488 6.20795 10.5488 5.35237C10.5488 4.49681 11.2424 3.80322 12.0979 3.80322C12.9535 3.80322 13.6471 4.49681 13.6471 5.35237Z"
            stroke="white" stroke-width="1.5" />
        <path
            d="M6.1177 2.64981C6.80604 2.28586 7.84989 1.76134 8.49302 1.55419C9.5233 1.22234 10.5789 0.997121 11.6155 0.985352C12.8185 0.971689 14.0457 1.18801 15.219 1.55573C15.8661 1.75851 16.926 2.30729 17.5972 2.67385C18.0816 2.93834 18.6505 3.02863 19.2013 2.90623C19.5232 2.83471 19.8592 2.93258 20.0924 3.16574L20.8824 3.95578C21.1234 4.19681 21.2149 4.54956 21.1212 4.8773C20.9584 5.44711 21.0316 6.04958 21.3002 6.56227C21.6813 7.28953 22.2508 8.44588 22.4368 9.14894C22.6972 10.1334 22.7592 11.1923 22.7158 12.257C22.6654 13.4905 22.4942 14.712 22.0978 15.8307C21.7646 16.7713 21.2341 17.6646 20.6092 18.4937C20.0068 19.293 19.2705 20.0103 18.4672 20.6441C17.8099 21.1626 17.0902 21.6074 16.3337 21.9473C15.5692 22.2907 14.7378 22.5217 13.8806 22.694C13.2314 22.8245 12.562 22.8879 11.8913 22.8941C11.2306 22.9001 10.5694 22.8488 9.92599 22.7325C9.25742 22.6117 8.5993 22.4291 7.97374 22.1813C7.26058 21.8989 6.57331 21.5455 5.93814 21.1252C5.0568 20.542 4.23115 19.9038 3.55055 19.1565C2.84657 18.3836 2.23932 17.517 1.80322 16.5896C1.40724 15.7476 1.17033 14.8094 1.01065 13.8415C0.853384 12.8883 0.796074 11.9194 0.880355 10.9774C0.965504 10.0257 1.21252 9.07239 1.53088 8.12635C1.68073 7.68107 2.01532 6.96466 2.27157 6.44068C2.51798 5.93681 2.59462 5.35887 2.46843 4.80053C2.38214 4.41876 2.49703 4.01936 2.773 3.7418L3.2473 3.26476C3.54635 2.96398 3.97555 2.8319 4.39196 2.91249C4.9859 3.02745 5.59379 2.92682 6.1177 2.64981Z"
            stroke="white" stroke-width="1.5" />
    </g>
    <defs>
        <clipPath id="clip0_2722_2955">
            <rect width="24" height="24" fill="white" />
        </clipPath>
    </defs>
</svg>