<svg width="24" height="24" viewBox="0 0 24 24" fill="none" xmlns="http://www.w3.org/2000/svg">
    <path
        d="M16.7342 15.7614C16.7342 16.4502 16.1172 17.0327 15.324 17.0327C14.5308 17.0327 13.9138 16.4502 13.9138 15.7614C13.9138 15.0726 14.5308 14.4902 15.324 14.4902C16.1172 14.4902 16.7342 15.0726 16.7342 15.7614Z"
        stroke="white" stroke-width="1.18706" />
    <path
        d="M10.1825 15.7614C10.1825 16.4502 9.56545 17.0327 8.77223 17.0327C7.97906 17.0327 7.36206 16.4502 7.36206 15.7614C7.36206 15.0726 7.97906 14.4902 8.77223 14.4902C9.56545 14.4902 10.1825 15.0726 10.1825 15.7614Z"
        stroke="white" stroke-width="1.18706" />
    <path
        d="M7.09947 10.725C7.09947 11.4138 6.48246 11.9962 5.68926 11.9962C4.89605 11.9962 4.27905 11.4138 4.27905 10.725C4.27905 10.0361 4.89605 9.45374 5.68926 9.45374C6.48246 9.45374 7.09947 10.0361 7.09947 10.725Z"
        stroke="white" stroke-width="1.18706" />
    <path
        d="M13.4586 10.725C13.4586 11.4138 12.8416 11.9962 12.0484 11.9962C11.2552 11.9962 10.6382 11.4138 10.6382 10.725C10.6382 10.0361 11.2552 9.45374 12.0484 9.45374C12.8416 9.45374 13.4586 10.0361 13.4586 10.725Z"
        stroke="white" stroke-width="1.18706" />
    <path
        d="M19.7221 10.725C19.7221 11.4138 19.1051 11.9962 18.3118 11.9962C17.5186 11.9962 16.9016 11.4138 16.9016 10.725C16.9016 10.0361 17.5186 9.45374 18.3118 9.45374C19.1051 9.45374 19.7221 10.0361 19.7221 10.725Z"
        stroke="white" stroke-width="1.18706" />
    <path
        d="M16.1339 6.63322C16.1339 7.11815 15.731 7.47886 15.2761 7.47886C14.8212 7.47886 14.4182 7.11815 14.4182 6.63322C14.4182 6.1483 14.8212 5.7876 15.2761 5.7876C15.731 5.7876 16.1339 6.1483 16.1339 6.63322Z"
        stroke="white" stroke-width="1.18706" />
    <path
        d="M9.87092 6.63322C9.87092 7.11815 9.468 7.47886 9.0131 7.47886C8.5582 7.47886 8.15527 7.11815 8.15527 6.63322C8.15527 6.1483 8.5582 5.7876 9.0131 5.7876C9.468 5.7876 9.87092 6.1483 9.87092 6.63322Z"
        stroke="white" stroke-width="1.18706" />
    <path
        d="M7.0478 3H16.2277C17.8248 3 19.3456 3.32275 20.2845 4.27117C20.8273 4.81953 21.361 5.57653 21.7414 6.20359C22.1248 6.83524 22.4209 7.3774 22.6731 8.07731C22.9378 8.81181 23.1654 9.53713 23.2299 10.4435C23.296 11.3724 23.1979 12.6555 22.9526 13.5875C22.7106 14.5067 22.256 15.3589 21.84 16.0418C21.4437 16.6928 21.1626 17.0132 20.6427 17.558C20.1294 18.0959 19.4551 18.7019 18.7706 19.1876C18.0702 19.6848 17.3526 20.1257 16.5403 20.4667C15.983 20.7007 14.8731 20.9859 14.2294 21.1408C13.9688 21.2036 13.7149 21.2472 13.4641 21.2651C12.6323 21.3242 10.8331 21.3717 9.3567 20.8963C9.07715 20.8063 8.8405 20.7378 8.62115 20.6744C8.11783 20.5288 7.70604 20.4097 7.0788 20.1175C5.93129 19.583 4.85606 18.9186 4.02188 18.0864C2.83822 16.9054 1.89111 15.4823 1.31092 13.9775C0.861417 12.8117 0.708303 11.5205 0.759423 10.2467C0.796833 9.31462 1.03575 8.3694 1.40447 7.47145C1.70372 6.74264 2.21895 6.02665 2.71153 5.34404C3.13146 4.76209 3.90611 4.08731 4.44885 3.676C5.11164 3.17369 6.03545 3 7.0478 3Z"
        stroke="white" stroke-width="1.18706" stroke-linejoin="round" />
</svg>